<mxfile host="app.diagrams.net" agent="Mozilla/5.0 (Macintosh; Intel Mac OS X 10_15_7) AppleWebKit/537.36 (KHTML, like Gecko) Chrome/127.0.0.0 Safari/537.36" version="24.7.6">
  <diagram name="Page-1" id="T4FZlEAuJP90PNaC_l4v">
    <mxGraphModel dx="943" dy="534" grid="1" gridSize="10" guides="1" tooltips="1" connect="1" arrows="1" fold="1" page="1" pageScale="1" pageWidth="827" pageHeight="1169" math="0" shadow="0">
      <root>
        <mxCell id="0" />
        <mxCell id="1" parent="0" />
        <mxCell id="kcPpEIY805fnmNRwei02-1" value="Patient Visits Doctor" style="whiteSpace=wrap;strokeWidth=2;" vertex="1" parent="1">
          <mxGeometry x="465" y="20" width="161" height="34" as="geometry" />
        </mxCell>
        <mxCell id="kcPpEIY805fnmNRwei02-2" value="Doctor Diagnoses Patient" style="whiteSpace=wrap;strokeWidth=2;" vertex="1" parent="1">
          <mxGeometry x="448" y="104" width="193" height="34" as="geometry" />
        </mxCell>
        <mxCell id="kcPpEIY805fnmNRwei02-3" value="Doctor Prescribes Medicine" style="whiteSpace=wrap;strokeWidth=2;" vertex="1" parent="1">
          <mxGeometry x="441" y="187" width="208" height="34" as="geometry" />
        </mxCell>
        <mxCell id="kcPpEIY805fnmNRwei02-4" value="Patient Receives Prescription" style="whiteSpace=wrap;strokeWidth=2;" vertex="1" parent="1">
          <mxGeometry x="434" y="271" width="223" height="34" as="geometry" />
        </mxCell>
        <mxCell id="kcPpEIY805fnmNRwei02-5" value="Patient Takes Prescription to Chemist" style="whiteSpace=wrap;strokeWidth=2;" vertex="1" parent="1">
          <mxGeometry x="404" y="354" width="282" height="34" as="geometry" />
        </mxCell>
        <mxCell id="kcPpEIY805fnmNRwei02-6" value="Chemist Reviews Prescription" style="whiteSpace=wrap;strokeWidth=2;" vertex="1" parent="1">
          <mxGeometry x="433" y="438" width="225" height="34" as="geometry" />
        </mxCell>
        <mxCell id="kcPpEIY805fnmNRwei02-7" value="Chemist Checks Medicine Availability" style="whiteSpace=wrap;strokeWidth=2;" vertex="1" parent="1">
          <mxGeometry x="406" y="521" width="279" height="34" as="geometry" />
        </mxCell>
        <mxCell id="kcPpEIY805fnmNRwei02-8" value="Medicine Available?" style="rhombus;strokeWidth=2;whiteSpace=wrap;" vertex="1" parent="1">
          <mxGeometry x="452" y="605" width="187" height="187" as="geometry" />
        </mxCell>
        <mxCell id="kcPpEIY805fnmNRwei02-9" value="Chemist Dispenses Medicine" style="whiteSpace=wrap;strokeWidth=2;" vertex="1" parent="1">
          <mxGeometry x="438" y="1379" width="215" height="34" as="geometry" />
        </mxCell>
        <mxCell id="kcPpEIY805fnmNRwei02-10" value="Chemist Sells Medicine to Patients at MRP" style="whiteSpace=wrap;strokeWidth=2;" vertex="1" parent="1">
          <mxGeometry x="388" y="1463" width="315" height="34" as="geometry" />
        </mxCell>
        <mxCell id="kcPpEIY805fnmNRwei02-11" value="Chemist Suggests Alternatives or Orders Medicine" style="whiteSpace=wrap;strokeWidth=2;" vertex="1" parent="1">
          <mxGeometry x="450" y="860" width="369" height="34" as="geometry" />
        </mxCell>
        <mxCell id="kcPpEIY805fnmNRwei02-12" value="Chemist Orders Medicine from Stockist" style="whiteSpace=wrap;strokeWidth=2;" vertex="1" parent="1">
          <mxGeometry x="488" y="943" width="293" height="34" as="geometry" />
        </mxCell>
        <mxCell id="kcPpEIY805fnmNRwei02-13" value="Stockist Processes Order" style="whiteSpace=wrap;strokeWidth=2;" vertex="1" parent="1">
          <mxGeometry x="540" y="1027" width="189" height="34" as="geometry" />
        </mxCell>
        <mxCell id="kcPpEIY805fnmNRwei02-14" value="Patient Waits for Medicine" style="whiteSpace=wrap;strokeWidth=2;" vertex="1" parent="1">
          <mxGeometry x="532" y="1129" width="204" height="34" as="geometry" />
        </mxCell>
        <mxCell id="kcPpEIY805fnmNRwei02-15" value="Chemist Notifies Patient When Medicine is Available" style="whiteSpace=wrap;strokeWidth=2;" vertex="1" parent="1">
          <mxGeometry x="441" y="1212" width="387" height="34" as="geometry" />
        </mxCell>
        <mxCell id="kcPpEIY805fnmNRwei02-16" value="Patient Returns to Buy Medicine" style="whiteSpace=wrap;strokeWidth=2;" vertex="1" parent="1">
          <mxGeometry x="512" y="1296" width="244" height="34" as="geometry" />
        </mxCell>
        <mxCell id="kcPpEIY805fnmNRwei02-17" value="MR and BE Conduct Prescription Auditing" style="whiteSpace=wrap;strokeWidth=2;" vertex="1" parent="1">
          <mxGeometry x="46" y="1546" width="306" height="34" as="geometry" />
        </mxCell>
        <mxCell id="kcPpEIY805fnmNRwei02-18" value="MR and BE Visit Doctors" style="whiteSpace=wrap;strokeWidth=2;" vertex="1" parent="1">
          <mxGeometry x="107" y="1630" width="184" height="34" as="geometry" />
        </mxCell>
        <mxCell id="kcPpEIY805fnmNRwei02-19" value="MR and BE Suggest Medicines to Doctors" style="whiteSpace=wrap;strokeWidth=2;" vertex="1" parent="1">
          <mxGeometry x="48" y="1713" width="301" height="34" as="geometry" />
        </mxCell>
        <mxCell id="kcPpEIY805fnmNRwei02-20" value="MR and BE Report to Area Business Management" style="whiteSpace=wrap;strokeWidth=2;" vertex="1" parent="1">
          <mxGeometry x="20" y="1797" width="357" height="34" as="geometry" />
        </mxCell>
        <mxCell id="kcPpEIY805fnmNRwei02-21" value="Product Sent to Headquarters" style="whiteSpace=wrap;strokeWidth=2;" vertex="1" parent="1">
          <mxGeometry x="85" y="1880" width="227" height="34" as="geometry" />
        </mxCell>
        <mxCell id="kcPpEIY805fnmNRwei02-22" value="Product Distributed to Stockists at 20% PTR" style="whiteSpace=wrap;strokeWidth=2;" vertex="1" parent="1">
          <mxGeometry x="36" y="1964" width="325" height="34" as="geometry" />
        </mxCell>
        <mxCell id="kcPpEIY805fnmNRwei02-23" value="Stockist Determines PTR" style="whiteSpace=wrap;strokeWidth=2;" vertex="1" parent="1">
          <mxGeometry x="104" y="2047" width="190" height="34" as="geometry" />
        </mxCell>
        <mxCell id="kcPpEIY805fnmNRwei02-24" value="Stockist Distributes Product to Chemists" style="whiteSpace=wrap;strokeWidth=2;" vertex="1" parent="1">
          <mxGeometry x="48" y="2131" width="301" height="34" as="geometry" />
        </mxCell>
        <mxCell id="kcPpEIY805fnmNRwei02-25" value="Chemist Receives Product from Stockist" style="whiteSpace=wrap;strokeWidth=2;" vertex="1" parent="1">
          <mxGeometry x="49" y="2214" width="299" height="34" as="geometry" />
        </mxCell>
        <mxCell id="kcPpEIY805fnmNRwei02-26" value="Chemist Calculates Price Based on PTR" style="whiteSpace=wrap;strokeWidth=2;" vertex="1" parent="1">
          <mxGeometry x="315" y="2298" width="293" height="34" as="geometry" />
        </mxCell>
        <mxCell id="kcPpEIY805fnmNRwei02-27" value="Process Repeats for New Prescriptions" style="whiteSpace=wrap;strokeWidth=2;" vertex="1" parent="1">
          <mxGeometry x="402" y="1546" width="287" height="34" as="geometry" />
        </mxCell>
        <mxCell id="kcPpEIY805fnmNRwei02-28" value="" style="curved=1;startArrow=none;endArrow=block;exitX=0.5;exitY=0.99;entryX=0.5;entryY=-0.01;rounded=0;" edge="1" parent="1" source="kcPpEIY805fnmNRwei02-1" target="kcPpEIY805fnmNRwei02-2">
          <mxGeometry relative="1" as="geometry">
            <Array as="points" />
          </mxGeometry>
        </mxCell>
        <mxCell id="kcPpEIY805fnmNRwei02-29" value="" style="curved=1;startArrow=none;endArrow=block;exitX=0.5;exitY=0.97;entryX=0.5;entryY=0;rounded=0;" edge="1" parent="1" source="kcPpEIY805fnmNRwei02-2" target="kcPpEIY805fnmNRwei02-3">
          <mxGeometry relative="1" as="geometry">
            <Array as="points" />
          </mxGeometry>
        </mxCell>
        <mxCell id="kcPpEIY805fnmNRwei02-30" value="" style="curved=1;startArrow=none;endArrow=block;exitX=0.5;exitY=0.99;entryX=0.5;entryY=-0.01;rounded=0;" edge="1" parent="1" source="kcPpEIY805fnmNRwei02-3" target="kcPpEIY805fnmNRwei02-4">
          <mxGeometry relative="1" as="geometry">
            <Array as="points" />
          </mxGeometry>
        </mxCell>
        <mxCell id="kcPpEIY805fnmNRwei02-31" value="" style="curved=1;startArrow=none;endArrow=block;exitX=0.5;exitY=0.97;entryX=0.5;entryY=0;rounded=0;" edge="1" parent="1" source="kcPpEIY805fnmNRwei02-4" target="kcPpEIY805fnmNRwei02-5">
          <mxGeometry relative="1" as="geometry">
            <Array as="points" />
          </mxGeometry>
        </mxCell>
        <mxCell id="kcPpEIY805fnmNRwei02-32" value="" style="curved=1;startArrow=none;endArrow=block;exitX=0.5;exitY=0.99;entryX=0.5;entryY=-0.01;rounded=0;" edge="1" parent="1" source="kcPpEIY805fnmNRwei02-5" target="kcPpEIY805fnmNRwei02-6">
          <mxGeometry relative="1" as="geometry">
            <Array as="points" />
          </mxGeometry>
        </mxCell>
        <mxCell id="kcPpEIY805fnmNRwei02-33" value="" style="curved=1;startArrow=none;endArrow=block;exitX=0.5;exitY=0.97;entryX=0.5;entryY=0;rounded=0;" edge="1" parent="1" source="kcPpEIY805fnmNRwei02-6" target="kcPpEIY805fnmNRwei02-7">
          <mxGeometry relative="1" as="geometry">
            <Array as="points" />
          </mxGeometry>
        </mxCell>
        <mxCell id="kcPpEIY805fnmNRwei02-34" value="" style="curved=1;startArrow=none;endArrow=block;exitX=0.5;exitY=0.99;entryX=0.5;entryY=0;rounded=0;" edge="1" parent="1" source="kcPpEIY805fnmNRwei02-7" target="kcPpEIY805fnmNRwei02-8">
          <mxGeometry relative="1" as="geometry">
            <Array as="points" />
          </mxGeometry>
        </mxCell>
        <mxCell id="kcPpEIY805fnmNRwei02-35" value="Yes" style="curved=1;startArrow=none;endArrow=block;exitX=0;exitY=0.95;entryX=0.24;entryY=0;rounded=0;" edge="1" parent="1" source="kcPpEIY805fnmNRwei02-8" target="kcPpEIY805fnmNRwei02-9">
          <mxGeometry relative="1" as="geometry">
            <Array as="points">
              <mxPoint x="406" y="825" />
              <mxPoint x="406" y="1354" />
            </Array>
          </mxGeometry>
        </mxCell>
        <mxCell id="kcPpEIY805fnmNRwei02-36" value="" style="curved=1;startArrow=none;endArrow=block;exitX=0.5;exitY=0.99;entryX=0.5;entryY=-0.01;rounded=0;" edge="1" parent="1" source="kcPpEIY805fnmNRwei02-9" target="kcPpEIY805fnmNRwei02-10">
          <mxGeometry relative="1" as="geometry">
            <Array as="points" />
          </mxGeometry>
        </mxCell>
        <mxCell id="kcPpEIY805fnmNRwei02-37" value="No" style="curved=1;startArrow=none;endArrow=block;exitX=0.85;exitY=1;entryX=0.5;entryY=-0.01;rounded=0;" edge="1" parent="1" source="kcPpEIY805fnmNRwei02-8" target="kcPpEIY805fnmNRwei02-11">
          <mxGeometry relative="1" as="geometry">
            <Array as="points">
              <mxPoint x="634" y="825" />
            </Array>
          </mxGeometry>
        </mxCell>
        <mxCell id="kcPpEIY805fnmNRwei02-38" value="" style="curved=1;startArrow=none;endArrow=block;exitX=0.5;exitY=0.98;entryX=0.5;entryY=0;rounded=0;" edge="1" parent="1" source="kcPpEIY805fnmNRwei02-11" target="kcPpEIY805fnmNRwei02-12">
          <mxGeometry relative="1" as="geometry">
            <Array as="points" />
          </mxGeometry>
        </mxCell>
        <mxCell id="kcPpEIY805fnmNRwei02-39" value="" style="curved=1;startArrow=none;endArrow=block;exitX=0.5;exitY=0.99;entryX=0.5;entryY=-0.01;rounded=0;" edge="1" parent="1" source="kcPpEIY805fnmNRwei02-12" target="kcPpEIY805fnmNRwei02-13">
          <mxGeometry relative="1" as="geometry">
            <Array as="points" />
          </mxGeometry>
        </mxCell>
        <mxCell id="kcPpEIY805fnmNRwei02-40" value="" style="curved=1;startArrow=none;endArrow=block;exitX=0.5;exitY=0.98;entryX=0.5;entryY=-0.01;rounded=0;" edge="1" parent="1" source="kcPpEIY805fnmNRwei02-13" target="kcPpEIY805fnmNRwei02-14">
          <mxGeometry relative="1" as="geometry">
            <Array as="points" />
          </mxGeometry>
        </mxCell>
        <mxCell id="kcPpEIY805fnmNRwei02-41" value="" style="curved=1;startArrow=none;endArrow=block;exitX=0.5;exitY=0.98;entryX=0.5;entryY=0;rounded=0;" edge="1" parent="1" source="kcPpEIY805fnmNRwei02-14" target="kcPpEIY805fnmNRwei02-15">
          <mxGeometry relative="1" as="geometry">
            <Array as="points" />
          </mxGeometry>
        </mxCell>
        <mxCell id="kcPpEIY805fnmNRwei02-42" value="" style="curved=1;startArrow=none;endArrow=block;exitX=0.5;exitY=0.99;entryX=0.5;entryY=-0.01;rounded=0;" edge="1" parent="1" source="kcPpEIY805fnmNRwei02-15" target="kcPpEIY805fnmNRwei02-16">
          <mxGeometry relative="1" as="geometry">
            <Array as="points" />
          </mxGeometry>
        </mxCell>
        <mxCell id="kcPpEIY805fnmNRwei02-43" value="" style="curved=1;startArrow=none;endArrow=block;exitX=0.5;exitY=0.98;entryX=0.66;entryY=0;rounded=0;" edge="1" parent="1" source="kcPpEIY805fnmNRwei02-16" target="kcPpEIY805fnmNRwei02-9">
          <mxGeometry relative="1" as="geometry">
            <Array as="points">
              <mxPoint x="634" y="1354" />
            </Array>
          </mxGeometry>
        </mxCell>
        <mxCell id="kcPpEIY805fnmNRwei02-44" value="" style="curved=1;startArrow=none;endArrow=block;exitX=0.06;exitY=0.98;entryX=0.5;entryY=0;rounded=0;" edge="1" parent="1" source="kcPpEIY805fnmNRwei02-10" target="kcPpEIY805fnmNRwei02-17">
          <mxGeometry relative="1" as="geometry">
            <Array as="points">
              <mxPoint x="199" y="1521" />
            </Array>
          </mxGeometry>
        </mxCell>
        <mxCell id="kcPpEIY805fnmNRwei02-45" value="" style="curved=1;startArrow=none;endArrow=block;exitX=0.5;exitY=0.99;entryX=0.5;entryY=-0.01;rounded=0;" edge="1" parent="1" source="kcPpEIY805fnmNRwei02-17" target="kcPpEIY805fnmNRwei02-18">
          <mxGeometry relative="1" as="geometry">
            <Array as="points" />
          </mxGeometry>
        </mxCell>
        <mxCell id="kcPpEIY805fnmNRwei02-46" value="" style="curved=1;startArrow=none;endArrow=block;exitX=0.5;exitY=0.98;entryX=0.5;entryY=0;rounded=0;" edge="1" parent="1" source="kcPpEIY805fnmNRwei02-18" target="kcPpEIY805fnmNRwei02-19">
          <mxGeometry relative="1" as="geometry">
            <Array as="points" />
          </mxGeometry>
        </mxCell>
        <mxCell id="kcPpEIY805fnmNRwei02-47" value="" style="curved=1;startArrow=none;endArrow=block;exitX=0.5;exitY=0.99;entryX=0.5;entryY=-0.01;rounded=0;" edge="1" parent="1" source="kcPpEIY805fnmNRwei02-19" target="kcPpEIY805fnmNRwei02-20">
          <mxGeometry relative="1" as="geometry">
            <Array as="points" />
          </mxGeometry>
        </mxCell>
        <mxCell id="kcPpEIY805fnmNRwei02-48" value="" style="curved=1;startArrow=none;endArrow=block;exitX=0.5;exitY=0.98;entryX=0.5;entryY=0;rounded=0;" edge="1" parent="1" source="kcPpEIY805fnmNRwei02-20" target="kcPpEIY805fnmNRwei02-21">
          <mxGeometry relative="1" as="geometry">
            <Array as="points" />
          </mxGeometry>
        </mxCell>
        <mxCell id="kcPpEIY805fnmNRwei02-49" value="" style="curved=1;startArrow=none;endArrow=block;exitX=0.5;exitY=0.99;entryX=0.5;entryY=-0.01;rounded=0;" edge="1" parent="1" source="kcPpEIY805fnmNRwei02-21" target="kcPpEIY805fnmNRwei02-22">
          <mxGeometry relative="1" as="geometry">
            <Array as="points" />
          </mxGeometry>
        </mxCell>
        <mxCell id="kcPpEIY805fnmNRwei02-50" value="" style="curved=1;startArrow=none;endArrow=block;exitX=0.5;exitY=0.98;entryX=0.5;entryY=0;rounded=0;" edge="1" parent="1" source="kcPpEIY805fnmNRwei02-22" target="kcPpEIY805fnmNRwei02-23">
          <mxGeometry relative="1" as="geometry">
            <Array as="points" />
          </mxGeometry>
        </mxCell>
        <mxCell id="kcPpEIY805fnmNRwei02-51" value="" style="curved=1;startArrow=none;endArrow=block;exitX=0.5;exitY=0.99;entryX=0.5;entryY=-0.01;rounded=0;" edge="1" parent="1" source="kcPpEIY805fnmNRwei02-23" target="kcPpEIY805fnmNRwei02-24">
          <mxGeometry relative="1" as="geometry">
            <Array as="points" />
          </mxGeometry>
        </mxCell>
        <mxCell id="kcPpEIY805fnmNRwei02-52" value="" style="curved=1;startArrow=none;endArrow=block;exitX=0.5;exitY=0.98;entryX=0.5;entryY=0;rounded=0;" edge="1" parent="1" source="kcPpEIY805fnmNRwei02-24" target="kcPpEIY805fnmNRwei02-25">
          <mxGeometry relative="1" as="geometry">
            <Array as="points" />
          </mxGeometry>
        </mxCell>
        <mxCell id="kcPpEIY805fnmNRwei02-53" value="" style="curved=1;startArrow=none;endArrow=block;exitX=0.5;exitY=0.99;entryX=0.14;entryY=-0.01;rounded=0;" edge="1" parent="1" source="kcPpEIY805fnmNRwei02-25" target="kcPpEIY805fnmNRwei02-26">
          <mxGeometry relative="1" as="geometry">
            <Array as="points">
              <mxPoint x="199" y="2273" />
            </Array>
          </mxGeometry>
        </mxCell>
        <mxCell id="kcPpEIY805fnmNRwei02-54" value="" style="curved=1;startArrow=none;endArrow=block;exitX=0.86;exitY=-0.01;entryX=0.73;entryY=0.98;rounded=0;" edge="1" parent="1" source="kcPpEIY805fnmNRwei02-26" target="kcPpEIY805fnmNRwei02-10">
          <mxGeometry relative="1" as="geometry">
            <Array as="points">
              <mxPoint x="723" y="2273" />
              <mxPoint x="723" y="1521" />
            </Array>
          </mxGeometry>
        </mxCell>
        <mxCell id="kcPpEIY805fnmNRwei02-55" value="" style="curved=1;startArrow=none;endArrow=block;exitX=0.5;exitY=0.98;entryX=0.5;entryY=0;rounded=0;" edge="1" parent="1" source="kcPpEIY805fnmNRwei02-10" target="kcPpEIY805fnmNRwei02-27">
          <mxGeometry relative="1" as="geometry">
            <Array as="points" />
          </mxGeometry>
        </mxCell>
        <mxCell id="kcPpEIY805fnmNRwei02-56" value="Patient Visits Doctor" style="whiteSpace=wrap;strokeWidth=2;" vertex="1" parent="1">
          <mxGeometry x="805" y="2350" width="161" height="34" as="geometry" />
        </mxCell>
        <mxCell id="kcPpEIY805fnmNRwei02-57" value="Doctor Diagnoses Patient" style="whiteSpace=wrap;strokeWidth=2;" vertex="1" parent="1">
          <mxGeometry x="789" y="2434" width="193" height="34" as="geometry" />
        </mxCell>
        <mxCell id="kcPpEIY805fnmNRwei02-58" value="Doctor Prescribes Medicine" style="whiteSpace=wrap;strokeWidth=2;" vertex="1" parent="1">
          <mxGeometry x="781" y="2517" width="208" height="34" as="geometry" />
        </mxCell>
        <mxCell id="kcPpEIY805fnmNRwei02-59" value="Patient Receives Prescription" style="whiteSpace=wrap;strokeWidth=2;" vertex="1" parent="1">
          <mxGeometry x="774" y="2601" width="223" height="34" as="geometry" />
        </mxCell>
        <mxCell id="kcPpEIY805fnmNRwei02-60" value="Patient Takes Prescription to Chemist" style="whiteSpace=wrap;strokeWidth=2;" vertex="1" parent="1">
          <mxGeometry x="744" y="2684" width="282" height="34" as="geometry" />
        </mxCell>
        <mxCell id="kcPpEIY805fnmNRwei02-61" value="Chemist Reviews Prescription" style="whiteSpace=wrap;strokeWidth=2;" vertex="1" parent="1">
          <mxGeometry x="773" y="2768" width="225" height="34" as="geometry" />
        </mxCell>
        <mxCell id="kcPpEIY805fnmNRwei02-62" value="Chemist Checks Medicine Availability" style="whiteSpace=wrap;strokeWidth=2;" vertex="1" parent="1">
          <mxGeometry x="746" y="2851" width="279" height="34" as="geometry" />
        </mxCell>
        <mxCell id="kcPpEIY805fnmNRwei02-63" value="Medicine Available?" style="rhombus;strokeWidth=2;whiteSpace=wrap;" vertex="1" parent="1">
          <mxGeometry x="792" y="2935" width="187" height="187" as="geometry" />
        </mxCell>
        <mxCell id="kcPpEIY805fnmNRwei02-64" value="Chemist Dispenses Medicine" style="whiteSpace=wrap;strokeWidth=2;" vertex="1" parent="1">
          <mxGeometry x="1450" y="3190" width="215" height="34" as="geometry" />
        </mxCell>
        <mxCell id="kcPpEIY805fnmNRwei02-65" value="Chemist Sells Medicine to Patients at MRP" style="whiteSpace=wrap;strokeWidth=2;" vertex="1" parent="1">
          <mxGeometry x="1400" y="3273" width="315" height="34" as="geometry" />
        </mxCell>
        <mxCell id="kcPpEIY805fnmNRwei02-66" value="Chemist Suggests Alternatives or Orders Medicine" style="whiteSpace=wrap;strokeWidth=2;" vertex="1" parent="1">
          <mxGeometry x="289" y="3190" width="369" height="34" as="geometry" />
        </mxCell>
        <mxCell id="kcPpEIY805fnmNRwei02-67" value="Chemist Orders Medicine from Stockist" style="whiteSpace=wrap;strokeWidth=2;" vertex="1" parent="1">
          <mxGeometry x="67" y="3273" width="293" height="34" as="geometry" />
        </mxCell>
        <mxCell id="kcPpEIY805fnmNRwei02-68" value="Stockist Processes Order" style="whiteSpace=wrap;strokeWidth=2;" vertex="1" parent="1">
          <mxGeometry x="119" y="3357" width="189" height="34" as="geometry" />
        </mxCell>
        <mxCell id="kcPpEIY805fnmNRwei02-69" value="Patient Waits for Medicine" style="whiteSpace=wrap;strokeWidth=2;" vertex="1" parent="1">
          <mxGeometry x="112" y="3440" width="204" height="34" as="geometry" />
        </mxCell>
        <mxCell id="kcPpEIY805fnmNRwei02-70" value="Chemist Notifies Patient When Medicine is Available" style="whiteSpace=wrap;strokeWidth=2;" vertex="1" parent="1">
          <mxGeometry x="20" y="3524" width="387" height="34" as="geometry" />
        </mxCell>
        <mxCell id="kcPpEIY805fnmNRwei02-71" value="Patient Returns to Buy Medicine" style="whiteSpace=wrap;strokeWidth=2;" vertex="1" parent="1">
          <mxGeometry x="92" y="3607" width="244" height="34" as="geometry" />
        </mxCell>
        <mxCell id="kcPpEIY805fnmNRwei02-72" value="Chemist Suggests Alternatives to Patient" style="whiteSpace=wrap;strokeWidth=2;" vertex="1" parent="1">
          <mxGeometry x="581" y="3273" width="304" height="34" as="geometry" />
        </mxCell>
        <mxCell id="kcPpEIY805fnmNRwei02-73" value="Patient Chooses Alternative or Orders Medicine" style="whiteSpace=wrap;strokeWidth=2;" vertex="1" parent="1">
          <mxGeometry x="557" y="3357" width="352" height="34" as="geometry" />
        </mxCell>
        <mxCell id="kcPpEIY805fnmNRwei02-74" value="Patient Waits for Alternative or Ordered Medicine" style="whiteSpace=wrap;strokeWidth=2;" vertex="1" parent="1">
          <mxGeometry x="548" y="3440" width="370" height="34" as="geometry" />
        </mxCell>
        <mxCell id="kcPpEIY805fnmNRwei02-75" value="Chemist Notifies Patient When Alternative or Ordered Medicine is Available" style="whiteSpace=wrap;strokeWidth=2;" vertex="1" parent="1">
          <mxGeometry x="457" y="3524" width="554" height="34" as="geometry" />
        </mxCell>
        <mxCell id="kcPpEIY805fnmNRwei02-76" value="Patient Returns to Buy Alternative or Ordered Medicine" style="whiteSpace=wrap;strokeWidth=2;" vertex="1" parent="1">
          <mxGeometry x="528" y="3607" width="411" height="34" as="geometry" />
        </mxCell>
        <mxCell id="kcPpEIY805fnmNRwei02-77" value="MR and BE Conduct Prescription Auditing" style="whiteSpace=wrap;strokeWidth=2;" vertex="1" parent="1">
          <mxGeometry x="1058" y="3357" width="306" height="34" as="geometry" />
        </mxCell>
        <mxCell id="kcPpEIY805fnmNRwei02-78" value="MR and BE Visit Doctors" style="whiteSpace=wrap;strokeWidth=2;" vertex="1" parent="1">
          <mxGeometry x="1119" y="3440" width="184" height="34" as="geometry" />
        </mxCell>
        <mxCell id="kcPpEIY805fnmNRwei02-79" value="MR and BE Suggest Medicines to Doctors" style="whiteSpace=wrap;strokeWidth=2;" vertex="1" parent="1">
          <mxGeometry x="1060" y="3524" width="301" height="34" as="geometry" />
        </mxCell>
        <mxCell id="kcPpEIY805fnmNRwei02-80" value="MR and BE Report to Area Business Management" style="whiteSpace=wrap;strokeWidth=2;" vertex="1" parent="1">
          <mxGeometry x="1032" y="3607" width="357" height="34" as="geometry" />
        </mxCell>
        <mxCell id="kcPpEIY805fnmNRwei02-81" value="Product Sent to Headquarters" style="whiteSpace=wrap;strokeWidth=2;" vertex="1" parent="1">
          <mxGeometry x="1097" y="3691" width="227" height="34" as="geometry" />
        </mxCell>
        <mxCell id="kcPpEIY805fnmNRwei02-82" value="Product Distributed to Stockists at 20% PTR" style="whiteSpace=wrap;strokeWidth=2;" vertex="1" parent="1">
          <mxGeometry x="1049" y="3774" width="325" height="34" as="geometry" />
        </mxCell>
        <mxCell id="kcPpEIY805fnmNRwei02-83" value="Stockist Determines PTR" style="whiteSpace=wrap;strokeWidth=2;" vertex="1" parent="1">
          <mxGeometry x="1116" y="3858" width="190" height="34" as="geometry" />
        </mxCell>
        <mxCell id="kcPpEIY805fnmNRwei02-84" value="Stockist Distributes Product to Chemists" style="whiteSpace=wrap;strokeWidth=2;" vertex="1" parent="1">
          <mxGeometry x="1060" y="3941" width="301" height="34" as="geometry" />
        </mxCell>
        <mxCell id="kcPpEIY805fnmNRwei02-85" value="Chemist Receives Product from Stockist" style="whiteSpace=wrap;strokeWidth=2;" vertex="1" parent="1">
          <mxGeometry x="1062" y="4025" width="299" height="34" as="geometry" />
        </mxCell>
        <mxCell id="kcPpEIY805fnmNRwei02-86" value="Chemist Calculates Price Based on PTR" style="whiteSpace=wrap;strokeWidth=2;" vertex="1" parent="1">
          <mxGeometry x="1327" y="4108" width="293" height="34" as="geometry" />
        </mxCell>
        <mxCell id="kcPpEIY805fnmNRwei02-87" value="Process Repeats for New Prescriptions" style="whiteSpace=wrap;strokeWidth=2;" vertex="1" parent="1">
          <mxGeometry x="1414" y="3357" width="287" height="34" as="geometry" />
        </mxCell>
        <mxCell id="kcPpEIY805fnmNRwei02-88" value="" style="curved=1;startArrow=none;endArrow=block;exitX=0.5;exitY=0.99;entryX=0.5;entryY=-0.01;rounded=0;" edge="1" parent="1" source="kcPpEIY805fnmNRwei02-56" target="kcPpEIY805fnmNRwei02-57">
          <mxGeometry relative="1" as="geometry">
            <Array as="points" />
          </mxGeometry>
        </mxCell>
        <mxCell id="kcPpEIY805fnmNRwei02-89" value="" style="curved=1;startArrow=none;endArrow=block;exitX=0.5;exitY=0.97;entryX=0.5;entryY=0;rounded=0;" edge="1" parent="1" source="kcPpEIY805fnmNRwei02-57" target="kcPpEIY805fnmNRwei02-58">
          <mxGeometry relative="1" as="geometry">
            <Array as="points" />
          </mxGeometry>
        </mxCell>
        <mxCell id="kcPpEIY805fnmNRwei02-90" value="" style="curved=1;startArrow=none;endArrow=block;exitX=0.5;exitY=0.99;entryX=0.5;entryY=-0.01;rounded=0;" edge="1" parent="1" source="kcPpEIY805fnmNRwei02-58" target="kcPpEIY805fnmNRwei02-59">
          <mxGeometry relative="1" as="geometry">
            <Array as="points" />
          </mxGeometry>
        </mxCell>
        <mxCell id="kcPpEIY805fnmNRwei02-91" value="" style="curved=1;startArrow=none;endArrow=block;exitX=0.5;exitY=0.97;entryX=0.5;entryY=0;rounded=0;" edge="1" parent="1" source="kcPpEIY805fnmNRwei02-59" target="kcPpEIY805fnmNRwei02-60">
          <mxGeometry relative="1" as="geometry">
            <Array as="points" />
          </mxGeometry>
        </mxCell>
        <mxCell id="kcPpEIY805fnmNRwei02-92" value="" style="curved=1;startArrow=none;endArrow=block;exitX=0.5;exitY=0.99;entryX=0.5;entryY=-0.01;rounded=0;" edge="1" parent="1" source="kcPpEIY805fnmNRwei02-60" target="kcPpEIY805fnmNRwei02-61">
          <mxGeometry relative="1" as="geometry">
            <Array as="points" />
          </mxGeometry>
        </mxCell>
        <mxCell id="kcPpEIY805fnmNRwei02-93" value="" style="curved=1;startArrow=none;endArrow=block;exitX=0.5;exitY=0.97;entryX=0.5;entryY=0;rounded=0;" edge="1" parent="1" source="kcPpEIY805fnmNRwei02-61" target="kcPpEIY805fnmNRwei02-62">
          <mxGeometry relative="1" as="geometry">
            <Array as="points" />
          </mxGeometry>
        </mxCell>
        <mxCell id="kcPpEIY805fnmNRwei02-94" value="" style="curved=1;startArrow=none;endArrow=block;exitX=0.5;exitY=0.99;entryX=0.5;entryY=0;rounded=0;" edge="1" parent="1" source="kcPpEIY805fnmNRwei02-62" target="kcPpEIY805fnmNRwei02-63">
          <mxGeometry relative="1" as="geometry">
            <Array as="points" />
          </mxGeometry>
        </mxCell>
        <mxCell id="kcPpEIY805fnmNRwei02-95" value="Yes" style="curved=1;startArrow=none;endArrow=block;exitX=1;exitY=0.59;entryX=0.5;entryY=-0.01;rounded=0;" edge="1" parent="1" source="kcPpEIY805fnmNRwei02-63" target="kcPpEIY805fnmNRwei02-64">
          <mxGeometry relative="1" as="geometry">
            <Array as="points">
              <mxPoint x="1557" y="3155" />
            </Array>
          </mxGeometry>
        </mxCell>
        <mxCell id="kcPpEIY805fnmNRwei02-96" value="" style="curved=1;startArrow=none;endArrow=block;exitX=0.5;exitY=0.98;entryX=0.5;entryY=0;rounded=0;" edge="1" parent="1" source="kcPpEIY805fnmNRwei02-64" target="kcPpEIY805fnmNRwei02-65">
          <mxGeometry relative="1" as="geometry">
            <Array as="points" />
          </mxGeometry>
        </mxCell>
        <mxCell id="kcPpEIY805fnmNRwei02-97" value="No" style="curved=1;startArrow=none;endArrow=block;exitX=0;exitY=0.65;entryX=0.5;entryY=-0.01;rounded=0;" edge="1" parent="1" source="kcPpEIY805fnmNRwei02-63" target="kcPpEIY805fnmNRwei02-66">
          <mxGeometry relative="1" as="geometry">
            <Array as="points">
              <mxPoint x="473" y="3155" />
            </Array>
          </mxGeometry>
        </mxCell>
        <mxCell id="kcPpEIY805fnmNRwei02-98" value="" style="curved=1;startArrow=none;endArrow=block;exitX=0.22;exitY=0.98;entryX=0.5;entryY=0;rounded=0;" edge="1" parent="1" source="kcPpEIY805fnmNRwei02-66" target="kcPpEIY805fnmNRwei02-67">
          <mxGeometry relative="1" as="geometry">
            <Array as="points">
              <mxPoint x="213" y="3248" />
            </Array>
          </mxGeometry>
        </mxCell>
        <mxCell id="kcPpEIY805fnmNRwei02-99" value="" style="curved=1;startArrow=none;endArrow=block;exitX=0.5;exitY=0.99;entryX=0.5;entryY=-0.01;rounded=0;" edge="1" parent="1" source="kcPpEIY805fnmNRwei02-67" target="kcPpEIY805fnmNRwei02-68">
          <mxGeometry relative="1" as="geometry">
            <Array as="points" />
          </mxGeometry>
        </mxCell>
        <mxCell id="kcPpEIY805fnmNRwei02-100" value="" style="curved=1;startArrow=none;endArrow=block;exitX=0.5;exitY=0.98;entryX=0.5;entryY=0;rounded=0;" edge="1" parent="1" source="kcPpEIY805fnmNRwei02-68" target="kcPpEIY805fnmNRwei02-69">
          <mxGeometry relative="1" as="geometry">
            <Array as="points" />
          </mxGeometry>
        </mxCell>
        <mxCell id="kcPpEIY805fnmNRwei02-101" value="" style="curved=1;startArrow=none;endArrow=block;exitX=0.5;exitY=0.99;entryX=0.5;entryY=-0.01;rounded=0;" edge="1" parent="1" source="kcPpEIY805fnmNRwei02-69" target="kcPpEIY805fnmNRwei02-70">
          <mxGeometry relative="1" as="geometry">
            <Array as="points" />
          </mxGeometry>
        </mxCell>
        <mxCell id="kcPpEIY805fnmNRwei02-102" value="" style="curved=1;startArrow=none;endArrow=block;exitX=0.5;exitY=0.98;entryX=0.5;entryY=0;rounded=0;" edge="1" parent="1" source="kcPpEIY805fnmNRwei02-70" target="kcPpEIY805fnmNRwei02-71">
          <mxGeometry relative="1" as="geometry">
            <Array as="points" />
          </mxGeometry>
        </mxCell>
        <mxCell id="kcPpEIY805fnmNRwei02-103" value="" style="curved=1;startArrow=none;endArrow=block;exitX=0.78;exitY=0.98;entryX=0.5;entryY=0;rounded=0;" edge="1" parent="1" source="kcPpEIY805fnmNRwei02-66" target="kcPpEIY805fnmNRwei02-72">
          <mxGeometry relative="1" as="geometry">
            <Array as="points">
              <mxPoint x="733" y="3248" />
            </Array>
          </mxGeometry>
        </mxCell>
        <mxCell id="kcPpEIY805fnmNRwei02-104" value="" style="curved=1;startArrow=none;endArrow=block;exitX=0.5;exitY=0.99;entryX=0.5;entryY=-0.01;rounded=0;" edge="1" parent="1" source="kcPpEIY805fnmNRwei02-72" target="kcPpEIY805fnmNRwei02-73">
          <mxGeometry relative="1" as="geometry">
            <Array as="points" />
          </mxGeometry>
        </mxCell>
        <mxCell id="kcPpEIY805fnmNRwei02-105" value="" style="curved=1;startArrow=none;endArrow=block;exitX=0.5;exitY=0.98;entryX=0.5;entryY=0;rounded=0;" edge="1" parent="1" source="kcPpEIY805fnmNRwei02-73" target="kcPpEIY805fnmNRwei02-74">
          <mxGeometry relative="1" as="geometry">
            <Array as="points" />
          </mxGeometry>
        </mxCell>
        <mxCell id="kcPpEIY805fnmNRwei02-106" value="" style="curved=1;startArrow=none;endArrow=block;exitX=0.5;exitY=0.99;entryX=0.5;entryY=-0.01;rounded=0;" edge="1" parent="1" source="kcPpEIY805fnmNRwei02-74" target="kcPpEIY805fnmNRwei02-75">
          <mxGeometry relative="1" as="geometry">
            <Array as="points" />
          </mxGeometry>
        </mxCell>
        <mxCell id="kcPpEIY805fnmNRwei02-107" value="" style="curved=1;startArrow=none;endArrow=block;exitX=0.5;exitY=0.98;entryX=0.5;entryY=0;rounded=0;" edge="1" parent="1" source="kcPpEIY805fnmNRwei02-75" target="kcPpEIY805fnmNRwei02-76">
          <mxGeometry relative="1" as="geometry">
            <Array as="points" />
          </mxGeometry>
        </mxCell>
        <mxCell id="kcPpEIY805fnmNRwei02-108" value="" style="curved=1;startArrow=none;endArrow=block;exitX=0.06;exitY=0.99;entryX=0.5;entryY=-0.01;rounded=0;" edge="1" parent="1" source="kcPpEIY805fnmNRwei02-65" target="kcPpEIY805fnmNRwei02-77">
          <mxGeometry relative="1" as="geometry">
            <Array as="points">
              <mxPoint x="1211" y="3332" />
            </Array>
          </mxGeometry>
        </mxCell>
        <mxCell id="kcPpEIY805fnmNRwei02-109" value="" style="curved=1;startArrow=none;endArrow=block;exitX=0.5;exitY=0.98;entryX=0.5;entryY=0;rounded=0;" edge="1" parent="1" source="kcPpEIY805fnmNRwei02-77" target="kcPpEIY805fnmNRwei02-78">
          <mxGeometry relative="1" as="geometry">
            <Array as="points" />
          </mxGeometry>
        </mxCell>
        <mxCell id="kcPpEIY805fnmNRwei02-110" value="" style="curved=1;startArrow=none;endArrow=block;exitX=0.5;exitY=0.99;entryX=0.5;entryY=-0.01;rounded=0;" edge="1" parent="1" source="kcPpEIY805fnmNRwei02-78" target="kcPpEIY805fnmNRwei02-79">
          <mxGeometry relative="1" as="geometry">
            <Array as="points" />
          </mxGeometry>
        </mxCell>
        <mxCell id="kcPpEIY805fnmNRwei02-111" value="" style="curved=1;startArrow=none;endArrow=block;exitX=0.5;exitY=0.98;entryX=0.5;entryY=0;rounded=0;" edge="1" parent="1" source="kcPpEIY805fnmNRwei02-79" target="kcPpEIY805fnmNRwei02-80">
          <mxGeometry relative="1" as="geometry">
            <Array as="points" />
          </mxGeometry>
        </mxCell>
        <mxCell id="kcPpEIY805fnmNRwei02-112" value="" style="curved=1;startArrow=none;endArrow=block;exitX=0.5;exitY=0.99;entryX=0.5;entryY=-0.01;rounded=0;" edge="1" parent="1" source="kcPpEIY805fnmNRwei02-80" target="kcPpEIY805fnmNRwei02-81">
          <mxGeometry relative="1" as="geometry">
            <Array as="points" />
          </mxGeometry>
        </mxCell>
        <mxCell id="kcPpEIY805fnmNRwei02-113" value="" style="curved=1;startArrow=none;endArrow=block;exitX=0.5;exitY=0.98;entryX=0.5;entryY=0;rounded=0;" edge="1" parent="1" source="kcPpEIY805fnmNRwei02-81" target="kcPpEIY805fnmNRwei02-82">
          <mxGeometry relative="1" as="geometry">
            <Array as="points" />
          </mxGeometry>
        </mxCell>
        <mxCell id="kcPpEIY805fnmNRwei02-114" value="" style="curved=1;startArrow=none;endArrow=block;exitX=0.5;exitY=0.99;entryX=0.5;entryY=-0.01;rounded=0;" edge="1" parent="1" source="kcPpEIY805fnmNRwei02-82" target="kcPpEIY805fnmNRwei02-83">
          <mxGeometry relative="1" as="geometry">
            <Array as="points" />
          </mxGeometry>
        </mxCell>
        <mxCell id="kcPpEIY805fnmNRwei02-115" value="" style="curved=1;startArrow=none;endArrow=block;exitX=0.5;exitY=0.98;entryX=0.5;entryY=0;rounded=0;" edge="1" parent="1" source="kcPpEIY805fnmNRwei02-83" target="kcPpEIY805fnmNRwei02-84">
          <mxGeometry relative="1" as="geometry">
            <Array as="points" />
          </mxGeometry>
        </mxCell>
        <mxCell id="kcPpEIY805fnmNRwei02-116" value="" style="curved=1;startArrow=none;endArrow=block;exitX=0.5;exitY=0.99;entryX=0.5;entryY=-0.01;rounded=0;" edge="1" parent="1" source="kcPpEIY805fnmNRwei02-84" target="kcPpEIY805fnmNRwei02-85">
          <mxGeometry relative="1" as="geometry">
            <Array as="points" />
          </mxGeometry>
        </mxCell>
        <mxCell id="kcPpEIY805fnmNRwei02-117" value="" style="curved=1;startArrow=none;endArrow=block;exitX=0.5;exitY=0.98;entryX=0.14;entryY=0;rounded=0;" edge="1" parent="1" source="kcPpEIY805fnmNRwei02-85" target="kcPpEIY805fnmNRwei02-86">
          <mxGeometry relative="1" as="geometry">
            <Array as="points">
              <mxPoint x="1211" y="4083" />
            </Array>
          </mxGeometry>
        </mxCell>
        <mxCell id="kcPpEIY805fnmNRwei02-118" value="" style="curved=1;startArrow=none;endArrow=block;exitX=0.86;exitY=0;entryX=0.73;entryY=0.99;rounded=0;" edge="1" parent="1" source="kcPpEIY805fnmNRwei02-86" target="kcPpEIY805fnmNRwei02-65">
          <mxGeometry relative="1" as="geometry">
            <Array as="points">
              <mxPoint x="1736" y="4083" />
              <mxPoint x="1736" y="3332" />
            </Array>
          </mxGeometry>
        </mxCell>
        <mxCell id="kcPpEIY805fnmNRwei02-119" value="" style="curved=1;startArrow=none;endArrow=block;exitX=0.5;exitY=0.99;entryX=0.5;entryY=-0.01;rounded=0;" edge="1" parent="1" source="kcPpEIY805fnmNRwei02-65" target="kcPpEIY805fnmNRwei02-87">
          <mxGeometry relative="1" as="geometry">
            <Array as="points" />
          </mxGeometry>
        </mxCell>
        <mxCell id="kcPpEIY805fnmNRwei02-120" value="Patient Visits Doctor" style="whiteSpace=wrap;strokeWidth=2;" vertex="1" parent="1">
          <mxGeometry x="805" y="4160" width="161" height="34" as="geometry" />
        </mxCell>
        <mxCell id="kcPpEIY805fnmNRwei02-121" value="Doctor Diagnoses Patient" style="whiteSpace=wrap;strokeWidth=2;" vertex="1" parent="1">
          <mxGeometry x="789" y="4244" width="193" height="34" as="geometry" />
        </mxCell>
        <mxCell id="kcPpEIY805fnmNRwei02-122" value="Doctor Prescribes Medicine" style="whiteSpace=wrap;strokeWidth=2;" vertex="1" parent="1">
          <mxGeometry x="781" y="4327" width="208" height="34" as="geometry" />
        </mxCell>
        <mxCell id="kcPpEIY805fnmNRwei02-123" value="Patient Receives Prescription" style="whiteSpace=wrap;strokeWidth=2;" vertex="1" parent="1">
          <mxGeometry x="774" y="4411" width="223" height="34" as="geometry" />
        </mxCell>
        <mxCell id="kcPpEIY805fnmNRwei02-124" value="Patient Takes Prescription to Chemist" style="whiteSpace=wrap;strokeWidth=2;" vertex="1" parent="1">
          <mxGeometry x="744" y="4494" width="282" height="34" as="geometry" />
        </mxCell>
        <mxCell id="kcPpEIY805fnmNRwei02-125" value="Chemist Reviews Prescription" style="whiteSpace=wrap;strokeWidth=2;" vertex="1" parent="1">
          <mxGeometry x="773" y="4578" width="225" height="34" as="geometry" />
        </mxCell>
        <mxCell id="kcPpEIY805fnmNRwei02-126" value="Chemist Checks Medicine Availability" style="whiteSpace=wrap;strokeWidth=2;" vertex="1" parent="1">
          <mxGeometry x="746" y="4661" width="279" height="34" as="geometry" />
        </mxCell>
        <mxCell id="kcPpEIY805fnmNRwei02-127" value="Medicine Available?" style="rhombus;strokeWidth=2;whiteSpace=wrap;" vertex="1" parent="1">
          <mxGeometry x="792" y="4745" width="187" height="187" as="geometry" />
        </mxCell>
        <mxCell id="kcPpEIY805fnmNRwei02-128" value="Chemist Dispenses Medicine" style="whiteSpace=wrap;strokeWidth=2;" vertex="1" parent="1">
          <mxGeometry x="1450" y="5000" width="215" height="34" as="geometry" />
        </mxCell>
        <mxCell id="kcPpEIY805fnmNRwei02-129" value="Chemist Sells Medicine to Patients at MRP" style="whiteSpace=wrap;strokeWidth=2;" vertex="1" parent="1">
          <mxGeometry x="1400" y="5083" width="315" height="34" as="geometry" />
        </mxCell>
        <mxCell id="kcPpEIY805fnmNRwei02-130" value="Chemist Suggests Alternatives or Orders Medicine" style="whiteSpace=wrap;strokeWidth=2;" vertex="1" parent="1">
          <mxGeometry x="289" y="5000" width="369" height="34" as="geometry" />
        </mxCell>
        <mxCell id="kcPpEIY805fnmNRwei02-131" value="Chemist Orders Medicine from Stockist" style="whiteSpace=wrap;strokeWidth=2;" vertex="1" parent="1">
          <mxGeometry x="67" y="5083" width="293" height="34" as="geometry" />
        </mxCell>
        <mxCell id="kcPpEIY805fnmNRwei02-132" value="Stockist Processes Order" style="whiteSpace=wrap;strokeWidth=2;" vertex="1" parent="1">
          <mxGeometry x="119" y="5167" width="189" height="34" as="geometry" />
        </mxCell>
        <mxCell id="kcPpEIY805fnmNRwei02-133" value="Patient Waits for Medicine" style="whiteSpace=wrap;strokeWidth=2;" vertex="1" parent="1">
          <mxGeometry x="112" y="5250" width="204" height="34" as="geometry" />
        </mxCell>
        <mxCell id="kcPpEIY805fnmNRwei02-134" value="Chemist Notifies Patient When Medicine is Available" style="whiteSpace=wrap;strokeWidth=2;" vertex="1" parent="1">
          <mxGeometry x="20" y="5334" width="387" height="34" as="geometry" />
        </mxCell>
        <mxCell id="kcPpEIY805fnmNRwei02-135" value="Patient Returns to Buy Medicine" style="whiteSpace=wrap;strokeWidth=2;" vertex="1" parent="1">
          <mxGeometry x="92" y="5417" width="244" height="34" as="geometry" />
        </mxCell>
        <mxCell id="kcPpEIY805fnmNRwei02-136" value="Chemist Suggests Alternatives to Patient" style="whiteSpace=wrap;strokeWidth=2;" vertex="1" parent="1">
          <mxGeometry x="581" y="5083" width="304" height="34" as="geometry" />
        </mxCell>
        <mxCell id="kcPpEIY805fnmNRwei02-137" value="Patient Chooses Alternative or Orders Medicine" style="whiteSpace=wrap;strokeWidth=2;" vertex="1" parent="1">
          <mxGeometry x="557" y="5167" width="352" height="34" as="geometry" />
        </mxCell>
        <mxCell id="kcPpEIY805fnmNRwei02-138" value="Patient Waits for Alternative or Ordered Medicine" style="whiteSpace=wrap;strokeWidth=2;" vertex="1" parent="1">
          <mxGeometry x="548" y="5250" width="370" height="34" as="geometry" />
        </mxCell>
        <mxCell id="kcPpEIY805fnmNRwei02-139" value="Chemist Notifies Patient When Alternative or Ordered Medicine is Available" style="whiteSpace=wrap;strokeWidth=2;" vertex="1" parent="1">
          <mxGeometry x="457" y="5334" width="554" height="34" as="geometry" />
        </mxCell>
        <mxCell id="kcPpEIY805fnmNRwei02-140" value="Patient Returns to Buy Alternative or Ordered Medicine" style="whiteSpace=wrap;strokeWidth=2;" vertex="1" parent="1">
          <mxGeometry x="528" y="5417" width="411" height="34" as="geometry" />
        </mxCell>
        <mxCell id="kcPpEIY805fnmNRwei02-141" value="MR and BE Conduct Prescription Auditing" style="whiteSpace=wrap;strokeWidth=2;" vertex="1" parent="1">
          <mxGeometry x="1058" y="5167" width="306" height="34" as="geometry" />
        </mxCell>
        <mxCell id="kcPpEIY805fnmNRwei02-142" value="MR and BE Visit Doctors" style="whiteSpace=wrap;strokeWidth=2;" vertex="1" parent="1">
          <mxGeometry x="1119" y="5250" width="184" height="34" as="geometry" />
        </mxCell>
        <mxCell id="kcPpEIY805fnmNRwei02-143" value="MR and BE Suggest Medicines to Doctors" style="whiteSpace=wrap;strokeWidth=2;" vertex="1" parent="1">
          <mxGeometry x="1060" y="5334" width="301" height="34" as="geometry" />
        </mxCell>
        <mxCell id="kcPpEIY805fnmNRwei02-144" value="MR and BE Report to Area Business Management" style="whiteSpace=wrap;strokeWidth=2;" vertex="1" parent="1">
          <mxGeometry x="1032" y="5417" width="357" height="34" as="geometry" />
        </mxCell>
        <mxCell id="kcPpEIY805fnmNRwei02-145" value="Product Sent to Headquarters" style="whiteSpace=wrap;strokeWidth=2;" vertex="1" parent="1">
          <mxGeometry x="1097" y="5501" width="227" height="34" as="geometry" />
        </mxCell>
        <mxCell id="kcPpEIY805fnmNRwei02-146" value="Product Distributed to Stockists at 20% PTR" style="whiteSpace=wrap;strokeWidth=2;" vertex="1" parent="1">
          <mxGeometry x="1049" y="5584" width="325" height="34" as="geometry" />
        </mxCell>
        <mxCell id="kcPpEIY805fnmNRwei02-147" value="Stockist Determines PTR" style="whiteSpace=wrap;strokeWidth=2;" vertex="1" parent="1">
          <mxGeometry x="1116" y="5668" width="190" height="34" as="geometry" />
        </mxCell>
        <mxCell id="kcPpEIY805fnmNRwei02-148" value="Stockist Distributes Product to Chemists" style="whiteSpace=wrap;strokeWidth=2;" vertex="1" parent="1">
          <mxGeometry x="1060" y="5751" width="301" height="34" as="geometry" />
        </mxCell>
        <mxCell id="kcPpEIY805fnmNRwei02-149" value="Chemist Receives Product from Stockist" style="whiteSpace=wrap;strokeWidth=2;" vertex="1" parent="1">
          <mxGeometry x="1062" y="5835" width="299" height="34" as="geometry" />
        </mxCell>
        <mxCell id="kcPpEIY805fnmNRwei02-150" value="Chemist Calculates Price Based on PTR" style="whiteSpace=wrap;strokeWidth=2;" vertex="1" parent="1">
          <mxGeometry x="1327" y="5918" width="293" height="34" as="geometry" />
        </mxCell>
        <mxCell id="kcPpEIY805fnmNRwei02-151" value="Process Repeats for New Prescriptions" style="whiteSpace=wrap;strokeWidth=2;" vertex="1" parent="1">
          <mxGeometry x="1414" y="5167" width="287" height="34" as="geometry" />
        </mxCell>
        <mxCell id="kcPpEIY805fnmNRwei02-152" value="" style="curved=1;startArrow=none;endArrow=block;exitX=0.5;exitY=0.99;entryX=0.5;entryY=-0.01;rounded=0;" edge="1" parent="1" source="kcPpEIY805fnmNRwei02-120" target="kcPpEIY805fnmNRwei02-121">
          <mxGeometry relative="1" as="geometry">
            <Array as="points" />
          </mxGeometry>
        </mxCell>
        <mxCell id="kcPpEIY805fnmNRwei02-153" value="" style="curved=1;startArrow=none;endArrow=block;exitX=0.5;exitY=0.97;entryX=0.5;entryY=0;rounded=0;" edge="1" parent="1" source="kcPpEIY805fnmNRwei02-121" target="kcPpEIY805fnmNRwei02-122">
          <mxGeometry relative="1" as="geometry">
            <Array as="points" />
          </mxGeometry>
        </mxCell>
        <mxCell id="kcPpEIY805fnmNRwei02-154" value="" style="curved=1;startArrow=none;endArrow=block;exitX=0.5;exitY=0.99;entryX=0.5;entryY=-0.01;rounded=0;" edge="1" parent="1" source="kcPpEIY805fnmNRwei02-122" target="kcPpEIY805fnmNRwei02-123">
          <mxGeometry relative="1" as="geometry">
            <Array as="points" />
          </mxGeometry>
        </mxCell>
        <mxCell id="kcPpEIY805fnmNRwei02-155" value="" style="curved=1;startArrow=none;endArrow=block;exitX=0.5;exitY=0.97;entryX=0.5;entryY=0;rounded=0;" edge="1" parent="1" source="kcPpEIY805fnmNRwei02-123" target="kcPpEIY805fnmNRwei02-124">
          <mxGeometry relative="1" as="geometry">
            <Array as="points" />
          </mxGeometry>
        </mxCell>
        <mxCell id="kcPpEIY805fnmNRwei02-156" value="" style="curved=1;startArrow=none;endArrow=block;exitX=0.5;exitY=0.99;entryX=0.5;entryY=-0.01;rounded=0;" edge="1" parent="1" source="kcPpEIY805fnmNRwei02-124" target="kcPpEIY805fnmNRwei02-125">
          <mxGeometry relative="1" as="geometry">
            <Array as="points" />
          </mxGeometry>
        </mxCell>
        <mxCell id="kcPpEIY805fnmNRwei02-157" value="" style="curved=1;startArrow=none;endArrow=block;exitX=0.5;exitY=0.97;entryX=0.5;entryY=0;rounded=0;" edge="1" parent="1" source="kcPpEIY805fnmNRwei02-125" target="kcPpEIY805fnmNRwei02-126">
          <mxGeometry relative="1" as="geometry">
            <Array as="points" />
          </mxGeometry>
        </mxCell>
        <mxCell id="kcPpEIY805fnmNRwei02-158" value="" style="curved=1;startArrow=none;endArrow=block;exitX=0.5;exitY=0.99;entryX=0.5;entryY=0;rounded=0;" edge="1" parent="1" source="kcPpEIY805fnmNRwei02-126" target="kcPpEIY805fnmNRwei02-127">
          <mxGeometry relative="1" as="geometry">
            <Array as="points" />
          </mxGeometry>
        </mxCell>
        <mxCell id="kcPpEIY805fnmNRwei02-159" value="Yes" style="curved=1;startArrow=none;endArrow=block;exitX=1;exitY=0.59;entryX=0.5;entryY=-0.01;rounded=0;" edge="1" parent="1" source="kcPpEIY805fnmNRwei02-127" target="kcPpEIY805fnmNRwei02-128">
          <mxGeometry relative="1" as="geometry">
            <Array as="points">
              <mxPoint x="1557" y="4965" />
            </Array>
          </mxGeometry>
        </mxCell>
        <mxCell id="kcPpEIY805fnmNRwei02-160" value="" style="curved=1;startArrow=none;endArrow=block;exitX=0.5;exitY=0.98;entryX=0.5;entryY=0;rounded=0;" edge="1" parent="1" source="kcPpEIY805fnmNRwei02-128" target="kcPpEIY805fnmNRwei02-129">
          <mxGeometry relative="1" as="geometry">
            <Array as="points" />
          </mxGeometry>
        </mxCell>
        <mxCell id="kcPpEIY805fnmNRwei02-161" value="No" style="curved=1;startArrow=none;endArrow=block;exitX=0;exitY=0.65;entryX=0.5;entryY=-0.01;rounded=0;" edge="1" parent="1" source="kcPpEIY805fnmNRwei02-127" target="kcPpEIY805fnmNRwei02-130">
          <mxGeometry relative="1" as="geometry">
            <Array as="points">
              <mxPoint x="473" y="4965" />
            </Array>
          </mxGeometry>
        </mxCell>
        <mxCell id="kcPpEIY805fnmNRwei02-162" value="" style="curved=1;startArrow=none;endArrow=block;exitX=0.22;exitY=0.98;entryX=0.5;entryY=0;rounded=0;" edge="1" parent="1" source="kcPpEIY805fnmNRwei02-130" target="kcPpEIY805fnmNRwei02-131">
          <mxGeometry relative="1" as="geometry">
            <Array as="points">
              <mxPoint x="213" y="5058" />
            </Array>
          </mxGeometry>
        </mxCell>
        <mxCell id="kcPpEIY805fnmNRwei02-163" value="" style="curved=1;startArrow=none;endArrow=block;exitX=0.5;exitY=0.99;entryX=0.5;entryY=-0.01;rounded=0;" edge="1" parent="1" source="kcPpEIY805fnmNRwei02-131" target="kcPpEIY805fnmNRwei02-132">
          <mxGeometry relative="1" as="geometry">
            <Array as="points" />
          </mxGeometry>
        </mxCell>
        <mxCell id="kcPpEIY805fnmNRwei02-164" value="" style="curved=1;startArrow=none;endArrow=block;exitX=0.5;exitY=0.98;entryX=0.5;entryY=0;rounded=0;" edge="1" parent="1" source="kcPpEIY805fnmNRwei02-132" target="kcPpEIY805fnmNRwei02-133">
          <mxGeometry relative="1" as="geometry">
            <Array as="points" />
          </mxGeometry>
        </mxCell>
        <mxCell id="kcPpEIY805fnmNRwei02-165" value="" style="curved=1;startArrow=none;endArrow=block;exitX=0.5;exitY=0.99;entryX=0.5;entryY=-0.01;rounded=0;" edge="1" parent="1" source="kcPpEIY805fnmNRwei02-133" target="kcPpEIY805fnmNRwei02-134">
          <mxGeometry relative="1" as="geometry">
            <Array as="points" />
          </mxGeometry>
        </mxCell>
        <mxCell id="kcPpEIY805fnmNRwei02-166" value="" style="curved=1;startArrow=none;endArrow=block;exitX=0.5;exitY=0.98;entryX=0.5;entryY=0;rounded=0;" edge="1" parent="1" source="kcPpEIY805fnmNRwei02-134" target="kcPpEIY805fnmNRwei02-135">
          <mxGeometry relative="1" as="geometry">
            <Array as="points" />
          </mxGeometry>
        </mxCell>
        <mxCell id="kcPpEIY805fnmNRwei02-167" value="" style="curved=1;startArrow=none;endArrow=block;exitX=0.78;exitY=0.98;entryX=0.5;entryY=0;rounded=0;" edge="1" parent="1" source="kcPpEIY805fnmNRwei02-130" target="kcPpEIY805fnmNRwei02-136">
          <mxGeometry relative="1" as="geometry">
            <Array as="points">
              <mxPoint x="733" y="5058" />
            </Array>
          </mxGeometry>
        </mxCell>
        <mxCell id="kcPpEIY805fnmNRwei02-168" value="" style="curved=1;startArrow=none;endArrow=block;exitX=0.5;exitY=0.99;entryX=0.5;entryY=-0.01;rounded=0;" edge="1" parent="1" source="kcPpEIY805fnmNRwei02-136" target="kcPpEIY805fnmNRwei02-137">
          <mxGeometry relative="1" as="geometry">
            <Array as="points" />
          </mxGeometry>
        </mxCell>
        <mxCell id="kcPpEIY805fnmNRwei02-169" value="" style="curved=1;startArrow=none;endArrow=block;exitX=0.5;exitY=0.98;entryX=0.5;entryY=0;rounded=0;" edge="1" parent="1" source="kcPpEIY805fnmNRwei02-137" target="kcPpEIY805fnmNRwei02-138">
          <mxGeometry relative="1" as="geometry">
            <Array as="points" />
          </mxGeometry>
        </mxCell>
        <mxCell id="kcPpEIY805fnmNRwei02-170" value="" style="curved=1;startArrow=none;endArrow=block;exitX=0.5;exitY=0.99;entryX=0.5;entryY=-0.01;rounded=0;" edge="1" parent="1" source="kcPpEIY805fnmNRwei02-138" target="kcPpEIY805fnmNRwei02-139">
          <mxGeometry relative="1" as="geometry">
            <Array as="points" />
          </mxGeometry>
        </mxCell>
        <mxCell id="kcPpEIY805fnmNRwei02-171" value="" style="curved=1;startArrow=none;endArrow=block;exitX=0.5;exitY=0.98;entryX=0.5;entryY=0;rounded=0;" edge="1" parent="1" source="kcPpEIY805fnmNRwei02-139" target="kcPpEIY805fnmNRwei02-140">
          <mxGeometry relative="1" as="geometry">
            <Array as="points" />
          </mxGeometry>
        </mxCell>
        <mxCell id="kcPpEIY805fnmNRwei02-172" value="" style="curved=1;startArrow=none;endArrow=block;exitX=0.06;exitY=0.99;entryX=0.5;entryY=-0.01;rounded=0;" edge="1" parent="1" source="kcPpEIY805fnmNRwei02-129" target="kcPpEIY805fnmNRwei02-141">
          <mxGeometry relative="1" as="geometry">
            <Array as="points">
              <mxPoint x="1211" y="5142" />
            </Array>
          </mxGeometry>
        </mxCell>
        <mxCell id="kcPpEIY805fnmNRwei02-173" value="" style="curved=1;startArrow=none;endArrow=block;exitX=0.5;exitY=0.98;entryX=0.5;entryY=0;rounded=0;" edge="1" parent="1" source="kcPpEIY805fnmNRwei02-141" target="kcPpEIY805fnmNRwei02-142">
          <mxGeometry relative="1" as="geometry">
            <Array as="points" />
          </mxGeometry>
        </mxCell>
        <mxCell id="kcPpEIY805fnmNRwei02-174" value="" style="curved=1;startArrow=none;endArrow=block;exitX=0.5;exitY=0.99;entryX=0.5;entryY=-0.01;rounded=0;" edge="1" parent="1" source="kcPpEIY805fnmNRwei02-142" target="kcPpEIY805fnmNRwei02-143">
          <mxGeometry relative="1" as="geometry">
            <Array as="points" />
          </mxGeometry>
        </mxCell>
        <mxCell id="kcPpEIY805fnmNRwei02-175" value="" style="curved=1;startArrow=none;endArrow=block;exitX=0.5;exitY=0.98;entryX=0.5;entryY=0;rounded=0;" edge="1" parent="1" source="kcPpEIY805fnmNRwei02-143" target="kcPpEIY805fnmNRwei02-144">
          <mxGeometry relative="1" as="geometry">
            <Array as="points" />
          </mxGeometry>
        </mxCell>
        <mxCell id="kcPpEIY805fnmNRwei02-176" value="" style="curved=1;startArrow=none;endArrow=block;exitX=0.5;exitY=0.99;entryX=0.5;entryY=-0.01;rounded=0;" edge="1" parent="1" source="kcPpEIY805fnmNRwei02-144" target="kcPpEIY805fnmNRwei02-145">
          <mxGeometry relative="1" as="geometry">
            <Array as="points" />
          </mxGeometry>
        </mxCell>
        <mxCell id="kcPpEIY805fnmNRwei02-177" value="" style="curved=1;startArrow=none;endArrow=block;exitX=0.5;exitY=0.98;entryX=0.5;entryY=0;rounded=0;" edge="1" parent="1" source="kcPpEIY805fnmNRwei02-145" target="kcPpEIY805fnmNRwei02-146">
          <mxGeometry relative="1" as="geometry">
            <Array as="points" />
          </mxGeometry>
        </mxCell>
        <mxCell id="kcPpEIY805fnmNRwei02-178" value="" style="curved=1;startArrow=none;endArrow=block;exitX=0.5;exitY=0.99;entryX=0.5;entryY=-0.01;rounded=0;" edge="1" parent="1" source="kcPpEIY805fnmNRwei02-146" target="kcPpEIY805fnmNRwei02-147">
          <mxGeometry relative="1" as="geometry">
            <Array as="points" />
          </mxGeometry>
        </mxCell>
        <mxCell id="kcPpEIY805fnmNRwei02-179" value="" style="curved=1;startArrow=none;endArrow=block;exitX=0.5;exitY=0.98;entryX=0.5;entryY=0;rounded=0;" edge="1" parent="1" source="kcPpEIY805fnmNRwei02-147" target="kcPpEIY805fnmNRwei02-148">
          <mxGeometry relative="1" as="geometry">
            <Array as="points" />
          </mxGeometry>
        </mxCell>
        <mxCell id="kcPpEIY805fnmNRwei02-180" value="" style="curved=1;startArrow=none;endArrow=block;exitX=0.5;exitY=0.99;entryX=0.5;entryY=-0.01;rounded=0;" edge="1" parent="1" source="kcPpEIY805fnmNRwei02-148" target="kcPpEIY805fnmNRwei02-149">
          <mxGeometry relative="1" as="geometry">
            <Array as="points" />
          </mxGeometry>
        </mxCell>
        <mxCell id="kcPpEIY805fnmNRwei02-181" value="" style="curved=1;startArrow=none;endArrow=block;exitX=0.5;exitY=0.98;entryX=0.14;entryY=0;rounded=0;" edge="1" parent="1" source="kcPpEIY805fnmNRwei02-149" target="kcPpEIY805fnmNRwei02-150">
          <mxGeometry relative="1" as="geometry">
            <Array as="points">
              <mxPoint x="1211" y="5893" />
            </Array>
          </mxGeometry>
        </mxCell>
        <mxCell id="kcPpEIY805fnmNRwei02-182" value="" style="curved=1;startArrow=none;endArrow=block;exitX=0.86;exitY=0;entryX=0.73;entryY=0.99;rounded=0;" edge="1" parent="1" source="kcPpEIY805fnmNRwei02-150" target="kcPpEIY805fnmNRwei02-129">
          <mxGeometry relative="1" as="geometry">
            <Array as="points">
              <mxPoint x="1736" y="5893" />
              <mxPoint x="1736" y="5142" />
            </Array>
          </mxGeometry>
        </mxCell>
        <mxCell id="kcPpEIY805fnmNRwei02-183" value="" style="curved=1;startArrow=none;endArrow=block;exitX=0.5;exitY=0.99;entryX=0.5;entryY=-0.01;rounded=0;" edge="1" parent="1" source="kcPpEIY805fnmNRwei02-129" target="kcPpEIY805fnmNRwei02-151">
          <mxGeometry relative="1" as="geometry">
            <Array as="points" />
          </mxGeometry>
        </mxCell>
      </root>
    </mxGraphModel>
  </diagram>
</mxfile>
